<svg xmlns="http://www.w3.org/2000/svg" width="46" height="46" viewBox="0 0 46 46">
  <defs>
    <style>
      .cls-1 {
        fill: #fff;
        fill-rule: evenodd;
      }
    </style>
  </defs>
  <path id="brush" class="cls-1" d="M10.894,43.725C6.9,46,0,45.9,0,45.9S-0.12,39.045,2.179,35.031c2.043-3.567,6.536-4.347,6.536-4.347L39.458,0l6.536,6.521L15.251,37.2S14.508,41.663,10.894,43.725Zm30.743-37.2L39.458,4.349,13.072,30.684l2.179,2.173ZM10.894,32.857a10.732,10.732,0,0,0-5.446,3.261c-1.886,2.42-2.178,6.52-2.178,6.52s4.085-.271,6.536-2.173a10.829,10.829,0,0,0,3.268-5.434Z"/>
</svg>
