<svg xmlns="http://www.w3.org/2000/svg" width="40" height="39" viewBox="0 0 40 39">
  <defs>
    <style>
      .cls-1 {
        fill: #fff;
        fill-rule: evenodd;
      }
    </style>
  </defs>
  <path id="twitter" class="cls-1" d="M36.507,4.613a14.15,14.15,0,0,1-4.556,1.794A7.048,7.048,0,0,0,26.72,4.073a7.284,7.284,0,0,0-7.17,7.391,7.67,7.67,0,0,0,.186,1.684A20.158,20.158,0,0,1,4.959,5.424a7.554,7.554,0,0,0,2.219,9.867,7.01,7.01,0,0,1-3.247-.928v0.092A7.349,7.349,0,0,0,9.68,21.7a6.944,6.944,0,0,1-3.239.125,7.213,7.213,0,0,0,6.7,5.135,14.116,14.116,0,0,1-8.9,3.162,14.654,14.654,0,0,1-1.711-.1,19.861,19.861,0,0,0,10.99,3.321c13.187,0,20.4-11.264,20.4-21.032l-0.023-.958a14.678,14.678,0,0,0,3.583-3.821A14,14,0,0,1,33.355,8.7,7.4,7.4,0,0,0,36.507,4.613Z"/>
</svg>
